<?xml version="1.0" standalone="no"?><!DOCTYPE svg PUBLIC "-//W3C//DTD SVG 1.1//EN" "http://www.w3.org/Graphics/SVG/1.1/DTD/svg11.dtd"><svg t="1567605533222" class="icon" viewBox="0 0 1024 1024" version="1.1" xmlns="http://www.w3.org/2000/svg" p-id="3533" xmlns:xlink="http://www.w3.org/1999/xlink" width="200" height="200"><defs><style type="text/css"></style></defs><path d="M282.2 1011c-2.1 0-4.2-0.5-6.2-1.5-7.4-3.8-72.4-37.5-91.4-61-11-13.7-21.7-45.3-9.5-69.7 12.9-25.8 43.3-30.2 66.6-29.4 23.4 0.8 38.7-5.1 45.5-17.6 8-14.8 2.5-36-2.6-43.3-4.8-6.8-19.7-22-64.6-48.1-26.4-15.3-50.1-26.8-50.4-26.9-6.8-3.3-9.6-11.4-6.4-18.2 3.3-6.8 11.4-9.6 18.2-6.4 1 0.5 25 12.1 52.2 27.9 37.7 21.9 62.3 40.7 73.1 55.8 9.9 13.9 18.2 46.4 4.5 72-8 14.8-25.7 32-65.4 32.1-1.7 0-3.4 0-5.1-0.1-15.2-0.5-34.8 1.5-41.2 14.4-6.5 13 0.8 33.4 6.3 40.3 11.6 14.3 56.8 40.7 82.6 53.9 6.7 3.4 9.4 11.7 5.9 18.4-2.4 4.7-7.2 7.4-12.1 7.4z" fill="#10457E" p-id="3534"></path><path d="M598.6 420.8l-71.3-71.3-71.3-71.3-189.8 74s-3.2 162.5-54.1 266.7c-20.3 41.5-36.4 81-37.2 83.1 2.1-0.8 41.6-16.9 83.1-37.2 104.2-50.9 266.7-54.1 266.7-54.1l73.9-189.9z" fill="#FCFCFC" p-id="3535"></path><path d="M174.9 715.6c-3.6 0-7-1.4-9.7-4-3.9-3.9-5.1-9.7-3-14.8 0.7-1.7 17.1-42 37.6-83.9 49-100.2 52.7-259.4 52.8-261 0.1-5.5 3.5-10.4 8.7-12.4l189.8-74c5-2 10.8-0.8 14.6 3.1l142.5 142.5c3.8 3.8 5 9.6 3.1 14.6l-74 189.8c-2 5.2-6.9 8.6-12.5 8.7-1.6 0-160.7 3.8-261 52.8-42.1 20.6-82.2 36.9-83.9 37.6-1.5 0.7-3.3 1-5 1z m104.7-354c-0.6 15.1-2.5 47.2-7.8 86.6-9.7 72.7-25.7 132.1-47.4 176.6-9.1 18.5-17.3 36.7-23.7 51.3 14.5-6.4 32.7-14.6 51.3-23.7 44.5-21.8 104-37.7 176.6-47.4 39.4-5.3 71.6-7.1 86.6-7.8l67.5-173.1-130-129.9-173.1 67.4z" fill="#10457E" p-id="3536"></path><path d="M432.2 444.6m-37.1 0a37.1 37.1 0 1 0 74.2 0 37.1 37.1 0 1 0-74.2 0Z" fill="#154B8B" p-id="3537"></path><path d="M432.1 444.7L204.5 672.3" fill="#FCFCFC" p-id="3538"></path><path d="M204.5 686c-3.5 0-7-1.3-9.7-4-5.3-5.3-5.3-14 0-19.3l227.6-227.6c5.3-5.3 14-5.3 19.3 0 5.3 5.3 5.3 14 0 19.3L214.2 682c-2.7 2.7-6.2 4-9.7 4z" fill="#10457E" p-id="3539"></path><path d="M599.7 421.8L455 277.1l182.6-248 210.2 210.1z" fill="#9ED5E4" p-id="3540"></path><path d="M599.7 435.5c-3.5 0-7-1.4-9.7-4L445.4 286.8c-4.8-4.8-5.3-12.3-1.3-17.7L626.6 21c2.4-3.2 6-5.2 10-5.5 4-0.3 7.9 1.1 10.7 4l210.1 210.1c2.8 2.8 4.3 6.7 4 10.7-0.3 4-2.3 7.6-5.5 10l-248 182.6c-2.5 1.7-5.4 2.6-8.2 2.6zM473 275.8l128.1 128.1 225.8-166.2L639.2 50 473 275.8z" fill="#154B8B" p-id="3541"></path></svg>